<?xml version="1.0" encoding="utf-8"?>
<!-- Generator: Adobe Illustrator 16.0.0, SVG Export Plug-In . SVG Version: 6.00 Build 0)  -->
<!DOCTYPE svg PUBLIC "-//W3C//DTD SVG 1.1//EN" "http://www.w3.org/Graphics/SVG/1.1/DTD/svg11.dtd">
<svg version="1.1" id="Layer_1" xmlns="http://www.w3.org/2000/svg" xmlns:xlink="http://www.w3.org/1999/xlink" x="0px" y="0px"
	 width="850.39px" height="186.735px" viewBox="0 0 850.39 186.735" enable-background="new 0 0 850.39 186.735"
	 xml:space="preserve">
<g>
	<g>
		<path fill="#FFFFFF" d="M332.354,60.954c-5.948,0-11.109,2.346-15.936,6.261h-0.449v-5.367h-12.233v60.484h12.794V75.599
			c3.816-2.572,8.867-3.8,10.889-3.8c5.61,0,7.632,2.794,7.632,8.608v41.926h12.795V76.717
			C347.845,66.991,342.681,60.954,332.354,60.954z M373.548,92.592v-1.004c0-10.623,2.02-20.015,12.794-20.015
			c4.154,0,9.203,0.896,12.685,2.46V63.525c-3.818-1.564-9.429-2.571-13.807-2.571c-17.509,0-24.803,12.409-24.803,29.627v3.017
			c0,16.548,6.619,29.74,24.241,29.74c5.277,0,10.888-1.677,14.931-4.471v-9.726c-3.93,1.789-8.307,3.465-13.583,3.465
			C375.455,112.606,373.548,103.103,373.548,92.592z M220.422,80.52V79.96c7.521-2.573,10.213-9.615,10.213-17.891
			c0-13.079-7.966-20.01-24.018-20.01h-25.591v80.273h25.816c14.478,0,26.264-5.814,26.264-22.471
			C233.107,89.351,228.955,83.537,220.422,80.52z M194.606,52.678h10.774c7.073,0,11.003,3.916,11.003,11.741
			c0,7.155-3.031,12.076-11.003,12.076h-10.774V52.678z M206.393,111.714h-11.786v-25.83h11.786c7.97,0,12.458,4.585,12.458,12.409
			C218.851,106.456,215.373,111.714,206.393,111.714z M266.919,60.954c-6.511,0-13.021,1.229-18.52,3.017v9.727
			c4.376-1.118,9.091-2.125,13.693-2.125c6.734,0,13.02,2.012,13.02,9.728v4.694l-13.805,1.342
			c-10.665,1.23-17.735,6.597-17.735,18.671c0,10.734,5.948,17.329,16.723,17.329c5.501,0,12.011-2.573,15.378-5.923h0.561
			l1.124,4.917h10.663V78.954C288.021,66.544,279.265,60.954,266.919,60.954z M275.112,110.146
			c-2.133,1.79-7.406,3.353-10.438,3.353c-5.5,0-8.082-2.794-8.082-8.271c0-5.704,2.807-8.946,8.53-9.617l9.99-0.893V110.146z
			 M646.318,64.643c-2.691-2.01-7.742-3.688-12.232-3.688c-16.611,0-23.009,13.08-23.009,29.627v3.017
			c0,12.857,4.489,29.74,20.543,29.74c6.059,0,10.995-2.573,14.923-6.26h0.563l1.236,5.254h10.772V37.139h-12.796V64.643z
			 M646.318,109.028c-2.017,1.902-6.506,3.579-9.65,3.579c-10.214,0-12.462-9.729-12.462-19.901v-1.117
			c0-10.176,3.146-20.015,13.361-20.015c2.804,0,6.509,0.782,8.751,2.012V109.028z M692.902,60.954
			c-6.514,0-13.021,1.229-18.521,3.017v9.727c4.378-1.118,9.092-2.125,13.695-2.125c6.731,0,13.017,2.012,13.017,9.728v4.694
			l-13.804,1.342c-10.663,1.23-17.734,6.597-17.734,18.671c0,10.734,5.947,17.329,16.723,17.329c5.498,0,12.012-2.573,15.377-5.923
			h0.562l1.121,4.917H714V78.954C714,66.544,705.248,60.954,692.902,60.954z M701.093,110.146c-2.132,1.79-7.406,3.353-10.438,3.353
			c-5.498,0-8.08-2.794-8.08-8.271c0-5.704,2.803-8.946,8.53-9.617l9.987-0.893V110.146z M585.71,108.582
			c-3.816,2.57-8.306,3.8-10.323,3.8c-5.613,0-7.637-2.794-7.637-8.608V61.848h-12.792v45.616c0,9.726,5.161,15.761,15.49,15.761
			c5.947,0,10.549-2.345,15.374-6.26h0.449v5.367h12.236V61.848H585.71V108.582z M431.352,60.954
			c-17.285,0-24.919,12.409-24.919,29.627v3.017c0,17.22,7.634,29.74,24.919,29.74c17.284,0,24.919-12.633,24.919-29.852v-2.904
			C456.271,73.363,448.636,60.954,431.352,60.954z M443.025,92.818c0,10.06-1.911,19.789-11.674,19.789
			c-9.764,0-12.011-9.838-12.011-19.901v-1.23c0-10.063,2.135-19.901,11.898-19.901c9.764,0,11.787,9.838,11.787,19.901V92.818z
			 M761.817,37.139v27.504c-2.695-2.01-7.744-3.688-12.233-3.688c-16.613,0-23.012,13.08-23.012,29.627v3.017
			c0,12.857,4.49,29.74,20.538,29.74c6.061,0,11.001-2.573,14.932-6.26h0.562l1.229,5.254h10.779V37.139H761.817z M761.817,109.028
			c-2.023,1.902-6.51,3.579-9.654,3.579c-10.216,0-12.458-9.729-12.458-19.901v-1.117c0-10.176,3.141-20.015,13.358-20.015
			c2.806,0,6.506,0.782,8.754,2.012V109.028z M482.759,82.53v-1.342c0-14.086,3.588-29.291,17.735-29.291
			c5.272,0,10.324,0.671,14.812,2.46v-11.18c-4.937-2.014-10.771-2.573-16.273-2.573c-21.774,0-30.866,16.436-30.866,39.244v4.025
			c0,21.912,8.195,39.465,30.191,39.465c6.626,0,12.461-1.677,17.514-5.368v-10.506c-4.828,2.348-9.204,4.024-15.827,4.024
			C485.9,111.489,482.759,96.618,482.759,82.53z M526.562,51.897h12.903V39.935h-12.903V51.897z M526.562,122.333h12.795V61.848
			h-12.795V122.333z M95.565,92.562c-10.391,13.27-31.011,36.449-45.4,52.435c9.113,10.71,22.701,16.786,41.084,16.786
			c41.084,0,57.55-30.692,57.55-71.777c0-20.621-3.835-38.525-13.427-51.315C123.221,56.275,105.636,79.775,95.565,92.562z
			 M132.015,34.375c-9.114-10.393-22.7-16.466-40.766-16.466c-41.241,0-57.549,30.854-57.549,72.096
			c0,20.463,4.157,38.048,13.268,50.996c12.15-17.585,29.895-42.044,40.286-54.832C96.366,74.5,117.146,50.839,132.015,34.375z"/>
	</g>
</g>
</svg>
